<svg width="1028" height="205" viewBox="0 0 1028 205" fill="none" xmlns="http://www.w3.org/2000/svg">
<path d="M570.947 157.472V110.899H594.237C619.622 110.899 626.178 111.834 633.189 116.452C639.469 120.589 642.365 126.037 642.793 134.521C643.223 143.027 640.963 149.017 635.62 153.534C633.234 155.551 632.819 156.335 633.947 156.695C636.867 157.627 643.844 165.863 644.883 169.605C647.597 179.379 645.482 188.412 638.94 194.982C631.285 202.67 628.649 203.225 597.697 203.665L570.947 204.044V157.472ZM619.527 185.014C624.101 182.224 625.669 177.717 623.872 172.52C621.682 166.184 618.204 164.903 603.197 164.901L590.947 164.899V175.899V186.899L603.697 186.895C614.407 186.892 616.94 186.591 619.527 185.014ZM615.349 147.505C621.472 144.946 623.601 138.997 620.522 133.044C618.344 128.832 615.06 127.899 602.4 127.899H590.947V137.733C590.947 143.141 591.247 147.866 591.614 148.233C592.903 149.521 611.918 148.938 615.349 147.505ZM698.754 157.367L717.363 110.836L727.756 111.117L738.149 111.399L754.333 151.899C763.235 174.174 771.499 194.986 772.698 198.149L774.879 203.899L763.663 203.896L752.447 203.892L749.408 196.146L746.368 188.399H727.576H708.784L705.792 196.149L702.8 203.899H691.472H680.145L698.754 157.367ZM734.565 154.971C731.187 146.21 728.161 138.779 727.839 138.458C727.392 138.01 720.578 154.809 715.187 169.649C714.839 170.608 717.755 170.899 727.72 170.899H740.707L734.565 154.971ZM814.947 157.362V110.824L824.144 111.112L833.341 111.399L852.894 138.108C863.648 152.798 873.01 165.375 873.697 166.058C874.697 167.051 874.947 161.655 874.947 139.099V110.899H884.947H894.947V157.399V203.899L886.197 203.873L877.447 203.846L856.947 175.622L836.447 147.398L836.182 175.647L835.916 203.898H825.432H814.947L814.947 157.362ZM945.947 157.399V110.899H955.924H965.901L966.174 128.649L966.447 146.399L974.538 146.369C987.236 146.321 988.594 144.955 995.979 124.815C998.615 117.625 1000.98 111.538 1001.23 111.287C1001.48 111.037 1006.63 110.96 1012.69 111.116L1023.69 111.4L1016.27 130.347C1012.19 140.767 1007.35 151.383 1005.52 153.937L1002.18 158.582L1010.14 172.991C1014.52 180.916 1020.13 191.112 1022.61 195.65L1027.11 203.9L1014.78 203.877L1002.45 203.855L992.467 184.84L982.487 165.826L974.467 166.113L966.447 166.4L966.175 185.15L965.903 203.9H955.925H945.947L945.947 157.399ZM0.947266 47.3992V0.899187H21.398C32.7314 0.899187 44.2113 1.40047 47.148 2.0236C58.2438 4.37787 66.789 10.9205 71.1479 20.3992C73.0617 24.5607 73.4338 26.9923 73.3668 34.8992C73.2598 47.5419 69.9846 54.5654 61.277 60.8247C54.2111 65.9038 49.455 67.1646 34.9473 67.8041L21.4473 68.3992L21.1674 81.1492L20.8875 93.8992H10.9174H0.947266V47.3992ZM42.0615 48.8841C49.9908 46.6816 54.0272 39.0734 51.8511 30.4316C51.1363 27.5927 49.6203 24.9604 47.835 23.4582C44.2836 20.4699 36.1627 18.7032 27.7965 19.0989L21.4473 19.3994L21.1677 33.3512C21.014 41.0247 21.1124 47.8872 21.3864 48.6012C21.9985 50.1964 36.6171 50.3964 42.0615 48.8841ZM116.947 47.3109V0.722656L142.197 1.06093C166.942 1.39239 167.557 1.45104 172.947 3.98937C180.378 7.48891 183.983 10.7299 187.493 17.0665C190.239 22.0234 190.447 23.1391 190.447 32.8992C190.447 42.7942 190.269 43.7161 187.345 48.8992C184.59 53.7842 178.252 59.9643 174.827 61.1061C173.801 61.4481 182.633 77.3987 191.74 91.6492L193.177 93.8992L180.812 93.8803L168.447 93.8614L160.136 79.3792L151.824 64.897H144.886H137.947V79.397V93.897H127.447H116.947V47.3109ZM162.458 45.4594C171.746 41.5785 172.502 26.6905 163.681 21.3553C160.969 19.7147 158.592 19.3992 148.947 19.3992H137.447L137.169 33.1492L136.891 46.8992H147.951C155.315 46.8992 160.163 46.418 162.458 45.4594ZM237.947 47.3992V0.899187H248.447H258.947V47.3992V93.8992H248.447H237.947V47.3992ZM309.947 47.3992V0.899187L318.697 0.918074L327.447 0.936991L343.907 24.9089C352.961 38.0934 360.729 48.5193 361.171 48.0775C361.613 47.6357 369.083 36.9528 377.771 24.3377L393.568 1.40121L402.258 1.11245L410.947 0.823696V47.3626V93.9015H400.947H390.947V66.3426C390.947 51.1851 390.563 39.021 390.094 39.3111C389.624 39.6014 384.429 46.8279 378.549 55.3702L367.857 70.9016H360.558H353.259L342.353 54.9346C336.355 46.1527 331.11 38.9527 330.697 38.9345C330.285 38.9156 329.947 51.2766 329.947 66.4016V93.9015H319.947H309.947V47.3992ZM461.947 47.3992V0.899187H492.447H522.947V9.89918V18.8992H502.447H481.947V28.3992V37.8992H500.447H518.947V46.8992V55.8992H500.447H481.947V65.8992V75.8992H502.947H523.947V84.8992V93.8992H492.947H461.947V47.3992Z" fill="#EAB308"/>
<path d="M523.947 141.899V175.899H0.949219L0.947266 141.899H523.947Z" fill="#EAB308"/>
<path d="M570.947 31.8992H1027.11V65.8992H570.947V31.8992Z" fill="#EAB308"/>
</svg>
